# xmcd
#
# Track frame offsets: 
#        150
#        7061
#        17480
#        29504
#        39932
#        48881
#        64360
#        69656
#        72248
#        89893
#        108541
#        131978
#        134754
#        150326
#        162252
#        165866
#        173837
#        175533
#        184775
#        198144
#        204631
#        207737
#        225138
#        238746
#        255534
#        274207
#        282891
#
# Disc length: 3963 seconds
#
# Revision: 0
# Processed by: cddbd v1.5.2PL0 Copyright (c) Steve Scherf et al.
# Submitted via: ExactAudioCopy v0.99pb4
#
DISCID=830f791b
DTITLE=Various Artist - Seven Come Eleven: Texas Swing on Radio and TV, 1946-64
DYEAR=2002
DGENRE=Country
TTITLE0=Adolf Hofner - Fiddle Swing
TTITLE1=Adolf Hofner - End Of The Line
TTITLE2=Adolf Hofner - Time Changes Everything
TTITLE3=The Home Folks (Johnny Gimble) - Dance With Me Henry
TTITLE4=The Home Folks (Johnny Gimble) - Little Red Wagon
TTITLE5=The Home Folks (Johnny Gimble) - In The Mood
TTITLE6=The Home Folks (Johnny Gimble) - Take Me Back To Tulsa
TTITLE7=Noyle Nix and his West Texas Cowboys - Theme and Intro
TTITLE8=Noyle Nix and his West Texas Cowboys - It Makes No Difference 
TTITLE8=Now
TTITLE9=Noyle Nix and his West Texas Cowboys - Bob Wills Boogie
TTITLE10=Noyle Nix and his West Texas Cowboys - In The Mood
TTITLE11=Rusty Locke and The Western Swing Band - Theme and Intro
TTITLE12=Rusty Locke and The Western Swing Band - Robin's Nest
TTITLE13=Rusty Locke and The Western Swing Band - Blue Suede Shoes
TTITLE14=Rusty Locke and The Western Swing Band - Lone Star Commercial
TTITLE15=Rusty Locke and The Western Swing Band - Devil's Dream
TTITLE16=Rip Ramsey and the Texas Wanderers - Theme and Intro
TTITLE17=Rip Ramsey and the Texas Wanderers - Little Rock Getaway
TTITLE18=Rip Ramsey and the Texas Wanderers - There'll Be Some Changes
TTITLE18=Made
TTITLE19=Rip Ramsey and the Texas Wanderers - Smiles Are Made Out Of T
TTITLE19=he Sunshine
TTITLE20=Moon Mullican and the Showboys - Intro
TTITLE21=Moon Mullican and the Showboys - Rag Mop
TTITLE22=Moon Mullican and the Showboys - Pipeliner's Blues
TTITLE23=Moon Mullican and the Showboys - Have I Told You Lately That 
TTITLE23=I Love You
TTITLE24=Moon Mullican and the Showboys - Seven Come Eleven
TTITLE25=Dickie Jones and The Skyliners - Secev Come Eleven (1946)
TTITLE26=Dickie Jones and The Skyliners - Soft Winds And Closing Time (1
TTITLE26=947)
EXTD=
EXTT0=
EXTT1=
EXTT2=
EXTT3=
EXTT4=
EXTT5=
EXTT6=
EXTT7=
EXTT8=
EXTT9=
EXTT10=
EXTT11=
EXTT12=
EXTT13=
EXTT14=
EXTT15=
EXTT16=
EXTT17=
EXTT18=
EXTT19=
EXTT20=
EXTT21=
EXTT22=
EXTT23=
EXTT24=
EXTT25=
EXTT26=
PLAYORDER=
